<svg width="67" height="42" viewBox="0 0 67 42" fill="none" xmlns="http://www.w3.org/2000/svg">
<path d="M14.8889 8.75C14.8889 6.42936 16.8497 4.20376 20.34 2.56282C23.8302 0.921872 28.564 0 33.5 0C38.436 0 43.1698 0.921872 46.66 2.56282C50.1503 4.20376 52.1111 6.42936 52.1111 8.75V21C52.1111 23.3206 50.1503 25.5462 46.66 27.1872C43.1698 28.8281 38.436 29.75 33.5 29.75C28.564 29.75 23.8302 28.8281 20.34 27.1872C16.8497 25.5462 14.8889 23.3206 14.8889 21V8.75ZM33.5 3.5C30.5384 3.5 27.6981 4.05312 25.604 5.03769C23.5098 6.02226 22.3333 7.35761 22.3333 8.75V21C22.3333 22.3924 23.5098 23.7277 25.604 24.7123C27.6981 25.6969 30.5384 26.25 33.5 26.25C36.4616 26.25 39.3019 25.6969 41.396 24.7123C43.4902 23.7277 44.6667 22.3924 44.6667 21V8.75C44.6667 7.35761 43.4902 6.02226 41.396 5.03769C39.3019 4.05312 36.4616 3.5 33.5 3.5ZM3.72222 19.25C4.70942 19.25 5.65618 19.4344 6.35423 19.7626C7.05228 20.0908 7.44445 20.5359 7.44445 21C7.44445 24.2489 10.1896 27.3647 15.0759 29.6621C19.9623 31.9594 26.5896 33.25 33.5 33.25C40.4104 33.25 47.0377 31.9594 51.9241 29.6621C56.8104 27.3647 59.5556 24.2489 59.5556 21C59.5556 20.5359 59.9477 20.0908 60.6458 19.7626C61.3438 19.4344 62.2906 19.25 63.2778 19.25C64.265 19.25 65.2117 19.4344 65.9098 19.7626C66.6078 20.0908 67 20.5359 67 21C67.0016 24.8747 63.9652 28.6136 58.4716 31.5019C52.9779 34.3901 45.4125 36.225 37.2222 36.6555V40.25C37.2222 40.7141 36.8301 41.1592 36.132 41.4874C35.434 41.8156 34.4872 42 33.5 42C32.5128 42 31.566 41.8156 30.868 41.4874C30.1699 41.1592 29.7778 40.7141 29.7778 40.25V36.6555C21.5875 36.225 14.0221 34.3901 8.52843 31.5019C3.03478 28.6136 -0.00158179 24.8747 6.18192e-07 21C6.18192e-07 20.5359 0.392163 20.0908 1.09022 19.7626C1.78827 19.4344 2.73503 19.25 3.72222 19.25Z" fill="black"/>
</svg>
