<svg width="67" height="42" viewBox="0 0 67 42" fill="none" xmlns="http://www.w3.org/2000/svg">
<path d="M41.8743 7.89584V20.6948L45.6344 23.0505C45.915 22.3999 46.0615 21.7178 46.0615 21.0122V7.89584C46.0724 5.83118 44.7878 3.84653 42.4846 2.36979C40.1814 0.893044 37.0442 0.0425052 33.7492 0.00155026C30.4543 -0.0394047 27.2657 0.732505 24.8708 2.15085C22.476 3.5692 21.0667 5.52037 20.9469 7.58367L25.1257 10.2017V7.89584C25.1257 6.50437 26.008 5.1699 27.5784 4.18598C29.1489 3.20206 31.279 2.6493 33.5 2.6493C35.721 2.6493 37.8511 3.20206 39.4216 4.18598C40.992 5.1699 41.8743 6.50437 41.8743 7.89584ZM20.9385 14.997L0.613971 2.26631C0.419318 2.14436 0.264912 1.99958 0.159566 1.84024C0.0542207 1.68091 2.051e-09 1.51013 0 1.33767C-2.051e-09 1.16521 0.0542207 0.994431 0.159566 0.835095C0.264912 0.675759 0.419318 0.530983 0.613971 0.409032C0.808624 0.287082 1.03971 0.190346 1.29404 0.124347C1.54836 0.0583478 1.82095 0.0243784 2.09623 0.0243784C2.37151 0.0243784 2.6441 0.0583478 2.89842 0.124347C3.15275 0.190346 3.38383 0.287082 3.57849 0.409032L66.386 39.7581C66.7792 40.0044 67 40.3384 67 40.6867C67 41.035 66.7792 41.3691 66.386 41.6153C65.9929 41.8616 65.4597 42 64.9038 42C64.3478 42 63.8146 41.8616 63.4215 41.6153L48.2346 32.1007C44.6519 33.9744 40.2418 35.1184 35.5936 35.3798V40.6867C35.5936 41.0346 35.373 41.3682 34.9804 41.6142C34.5878 41.8602 34.0553 41.9983 33.5 41.9983C32.9447 41.9983 32.4122 41.8602 32.0196 41.6142C31.627 41.3682 31.4064 41.0346 31.4064 40.6867V35.3825C25.6843 35.0552 20.3641 33.3996 16.4905 30.7408C12.617 28.082 10.4698 24.612 10.4706 21.0122C10.4706 20.6643 10.6911 20.3307 11.0838 20.0847C11.4764 19.8387 12.0089 19.7006 12.5642 19.7006C13.1194 19.7006 13.6519 19.8387 14.0445 20.0847C14.4372 20.3307 14.6577 20.6643 14.6577 21.0122C14.6574 23.2353 15.6591 25.4132 17.5475 27.2954C19.4359 29.1775 22.1342 30.6874 25.3319 31.6511C28.5295 32.6148 32.0966 32.9932 35.6224 32.7428C39.1483 32.4924 42.4896 31.6233 45.2618 30.2356L40.7815 27.4287C38.9021 28.2663 36.6908 28.7636 34.3901 28.866C32.0895 28.9684 29.7882 28.672 27.7386 28.0092C25.6891 27.3464 23.9703 26.3429 22.7708 25.1087C21.5713 23.8745 20.9374 22.4572 20.9385 21.0122V14.997ZM37.7542 25.5321L25.1257 17.6203V21.0122C25.1255 21.9373 25.5157 22.8461 26.2569 23.6462C26.998 24.4464 28.0637 25.1096 29.3459 25.5685C30.6281 26.0274 32.0812 26.2657 33.5579 26.2594C35.0345 26.253 36.4822 26.0021 37.7542 25.5321ZM53.611 28.0478L50.5041 26.1013C51.7176 24.5126 52.3458 22.7734 52.3423 21.0122C52.3423 20.6643 52.5628 20.3307 52.9555 20.0847C53.3481 19.8387 53.8806 19.7006 54.4358 19.7006C54.9911 19.7006 55.5236 19.8387 55.9162 20.0847C56.3089 20.3307 56.5294 20.6643 56.5294 21.0122C56.5294 23.5673 55.4701 25.9649 53.611 28.0478Z" fill="black"/>
</svg>
