<svg width="24" height="24" viewBox="0 0 24 24" fill="none" xmlns="http://www.w3.org/2000/svg">
<g clip-path="url(#clip0_1044_6321)">
<path d="M18.75 19V11.5C18.75 9.8424 18.0915 8.25269 16.9194 7.08058C15.7473 5.90848 14.1576 5.25 12.5 5.25C10.8424 5.25 9.25269 5.90848 8.08058 7.08058C6.90848 8.25269 6.25 9.8424 6.25 11.5V19M18.75 19H6.25M18.75 19C19.413 19 20.0489 19.2634 20.5178 19.7322C20.9866 20.2011 21.25 20.837 21.25 21.5V24H3.75V21.5C3.75 20.837 4.01339 20.2011 4.48223 19.7322C4.95107 19.2634 5.58696 19 6.25 19M23.75 11.5H25M20.625 2.125L20 2.75M0 11.5H1.25M12.5 -1V0.25M3.66125 2.66125L4.545 3.545M12.5 11.5V19" stroke="black" stroke-width="2" stroke-linecap="round" stroke-linejoin="round"/>
</g>
<defs>
<clipPath id="clip0_1044_6321">
<rect width="24" height="24" fill="white"/>
</clipPath>
</defs>
</svg>
