<svg width="67" height="47" viewBox="0 0 67 47" fill="none" xmlns="http://www.w3.org/2000/svg">
<path d="M3.57849 0.430696C3.38383 0.294148 3.15275 0.185833 2.89842 0.111934C2.6441 0.0380354 2.37151 1.43876e-09 2.09623 0C1.82095 -1.43876e-09 1.54836 0.0380354 1.29404 0.111934C1.03971 0.185833 0.808624 0.294148 0.613971 0.430696C0.419318 0.567244 0.264912 0.729349 0.159566 0.907757C0.0542207 1.08617 -2.051e-09 1.27738 0 1.47049C2.051e-09 1.6636 0.0542207 1.85481 0.159566 2.03322C0.264912 2.21163 0.419318 2.37373 0.613971 2.51028L5.47109 5.91458C3.95912 6.05291 2.57052 6.57236 1.56432 7.37603C0.558128 8.17969 0.0030529 9.21268 0.00264449 10.2823V36.7177C0.00264449 37.8862 0.664365 39.0069 1.84224 39.8332C3.0201 40.6594 4.61764 41.1236 6.2834 41.1236H55.6627L63.4215 46.5693C63.8146 46.8451 64.3478 47 64.9038 47C65.4597 47 65.9929 46.8451 66.386 46.5693C66.7792 46.2935 67 45.9195 67 45.5295C67 45.1395 66.7792 44.7655 66.386 44.4897L3.57849 0.430696ZM43.1012 32.3118L46.0615 34.3885V38.1863H20.9385V33.7804C20.9385 33.3909 21.1591 33.0174 21.5517 32.742C21.9443 32.4665 22.4768 32.3118 23.0321 32.3118H43.1012ZM38.914 29.3745H23.0321C21.3663 29.3745 19.7688 29.8387 18.5909 30.665C17.413 31.4913 16.7513 32.6119 16.7513 33.7804V38.1863H6.2834C5.72815 38.1863 5.19563 38.0316 4.80301 37.7562C4.41039 37.4808 4.18981 37.1072 4.18981 36.7177V10.2823C4.18981 9.89279 4.41039 9.51924 4.80301 9.24381C5.19563 8.96839 5.72815 8.81366 6.2834 8.81366H9.60383L23.0949 18.2775C22.9206 19.3727 23.0998 20.4813 23.6194 21.5212C24.1389 22.5611 24.9855 23.5057 26.0962 24.2849C27.207 25.0641 28.5535 25.6579 30.0359 26.0224C31.5183 26.3868 33.0987 26.5126 34.6598 26.3903L38.914 29.3745ZM27.5123 13.0698L30.5522 15.2022C31.7401 14.7585 33.0997 14.5942 34.4307 14.7335C35.7617 14.8727 36.9938 15.3082 37.9454 15.9757C38.8969 16.6432 39.5177 17.5075 39.7162 18.4412C39.9147 19.3749 39.6805 20.3287 39.048 21.1619L42.0879 23.2944C43.4905 21.8804 44.1398 20.1654 43.9222 18.4495C43.7045 16.7336 42.6339 15.126 40.8974 13.9078C39.1609 12.6897 36.8692 11.9386 34.4231 11.786C31.977 11.6333 29.5323 12.0888 27.5165 13.0727L27.5123 13.0698ZM62.8102 36.7177C62.8111 37.0206 62.6779 37.3161 62.4292 37.5636L65.402 39.6491C66.3944 38.8707 66.9974 37.8427 66.9974 36.7177V10.2823C66.9974 9.7037 66.8349 9.13078 66.5193 8.59623C66.2036 8.06168 65.741 7.57598 65.1578 7.16685C64.5745 6.75772 63.8822 6.43319 63.1201 6.21177C62.3581 5.99035 61.5414 5.87639 60.7166 5.87639H17.258L21.4451 8.81366H60.7166C61.2719 8.81366 61.8044 8.96839 62.197 9.24381C62.5896 9.51924 62.8102 9.89279 62.8102 10.2823V36.7177Z" fill="black"/>
</svg>
