<svg width="104" height="50" viewBox="0 0 104 50" fill="none" xmlns="http://www.w3.org/2000/svg">
<g filter="url(#filter0_d_715_6547)">
<path d="M8.76119 24.5C7.94519 24.5 7.38119 24.344 7.06919 24.032C6.78119 23.72 6.62519 23.156 6.60119 22.34L6.06119 8.408C6.01319 7.688 6.36119 7.328 7.10519 7.328H10.9572C11.6532 7.328 12.0012 7.688 12.0012 8.408V11.288L17.0412 11.252V8.336C17.0652 7.616 17.4132 7.256 18.0852 7.256H21.9012C22.6212 7.256 22.9692 7.616 22.9452 8.336L22.9092 9.884H27.0132V7.94C27.0132 7.22 27.3612 6.86 28.0572 6.86H32.4492C33.1692 6.86 33.5172 7.22 33.4932 7.94L33.1332 24.608C33.0852 25.328 32.7252 25.688 32.0532 25.688H28.3092C27.5892 25.688 27.2292 25.328 27.2292 24.608L27.1932 21.692H22.6932V22.196C22.6932 23.012 22.5372 23.576 22.2252 23.888C21.9372 24.176 21.3852 24.332 20.5692 24.356L8.76119 24.5ZM16.5012 38.792C15.7092 38.096 15.0972 37.292 14.6652 36.38C14.2332 35.468 14.0172 34.496 14.0172 33.464C14.0172 32.432 14.2332 31.46 14.6652 30.548C15.0972 29.612 15.7092 28.796 16.5012 28.1C17.2932 27.404 18.2412 26.852 19.3452 26.444C20.4732 26.036 21.7212 25.832 23.0892 25.832C24.4572 25.832 25.6932 26.036 26.7972 26.444C27.9012 26.852 28.8492 27.404 29.6412 28.1C30.4332 28.796 31.0332 29.612 31.4412 30.548C31.8732 31.46 32.0892 32.432 32.0892 33.464C32.0892 34.496 31.8732 35.468 31.4412 36.38C31.0332 37.292 30.4332 38.096 29.6412 38.792C28.8492 39.488 27.9012 40.04 26.7972 40.448C25.6932 40.856 24.4572 41.06 23.0892 41.06C21.7212 41.06 20.4732 40.856 19.3452 40.448C18.2412 40.04 17.2932 39.488 16.5012 38.792ZM19.8132 33.464C19.8132 34.304 20.1252 35.012 20.7492 35.588C21.3972 36.164 22.2972 36.452 23.4492 36.452C24.6012 36.452 25.4892 36.164 26.1132 35.588C26.7372 35.012 27.0492 34.304 27.0492 33.464C27.0492 32.624 26.7372 31.916 26.1132 31.34C25.4892 30.764 24.6012 30.476 23.4492 30.476C22.2972 30.476 21.3972 30.764 20.7492 31.34C20.1252 31.916 19.8132 32.624 19.8132 33.464ZM12.0732 19.532L17.1132 19.496L17.0772 16.04L12.0372 16.112L12.0732 19.532ZM22.8012 16.724H27.1212L27.0852 14.852H22.8372L22.8012 16.724ZM58.761 35.588C58.041 35.588 57.681 35.228 57.681 34.508V9.02C57.681 8.3 58.029 7.94 58.725 7.94H63.117C63.837 7.94 64.185 8.3 64.161 9.02L63.909 17.228L66.897 17.192C67.281 17.192 67.581 17.312 67.797 17.552C68.037 17.768 68.157 18.068 68.157 18.452V21.404C68.157 21.788 68.037 22.1 67.797 22.34C67.581 22.556 67.281 22.664 66.897 22.664L63.729 22.736L63.369 34.508C63.369 35.228 63.009 35.588 62.289 35.588H58.761ZM42.561 28.316C41.361 27.836 40.317 27.152 39.429 26.264C38.541 25.376 37.833 24.32 37.305 23.096C36.801 21.848 36.549 20.444 36.549 18.884C36.549 17.348 36.801 15.944 37.305 14.672C37.833 13.4 38.541 12.308 39.429 11.396C40.317 10.484 41.361 9.788 42.561 9.308C43.785 8.804 45.093 8.552 46.485 8.552C47.877 8.552 49.173 8.804 50.373 9.308C51.573 9.788 52.617 10.484 53.505 11.396C54.393 12.308 55.089 13.4 55.593 14.672C56.097 15.944 56.349 17.348 56.349 18.884C56.349 20.444 56.097 21.848 55.593 23.096C55.089 24.32 54.393 25.376 53.505 26.264C52.617 27.152 51.573 27.836 50.373 28.316C49.173 28.772 47.877 29 46.485 29C45.093 29 43.785 28.772 42.561 28.316ZM44.181 22.34C44.925 23.156 45.873 23.564 47.025 23.564C48.153 23.564 49.089 23.156 49.833 22.34C50.577 21.5 50.949 20.348 50.949 18.884C50.949 17.42 50.577 16.268 49.833 15.428C49.089 14.588 48.153 14.168 47.025 14.168C45.825 14.168 44.865 14.588 44.145 15.428C43.425 16.268 43.065 17.42 43.065 18.884C43.065 20.348 43.437 21.5 44.181 22.34ZM92.255 35.588C91.535 35.588 91.175 35.228 91.175 34.508V9.02C91.175 8.3 91.523 7.94 92.219 7.94H96.611C97.331 7.94 97.679 8.3 97.655 9.02L96.863 34.508C96.863 35.228 96.503 35.588 95.783 35.588H92.255ZM76.991 26.588C78.599 26.636 80.267 26.6 81.995 26.48C83.747 26.336 85.439 26.12 87.071 25.832C87.767 25.712 88.163 25.952 88.259 26.552L88.799 29.54C88.895 30.212 88.643 30.632 88.043 30.8C87.107 31.064 86.027 31.292 84.803 31.484C83.579 31.676 82.307 31.844 80.987 31.988C79.667 32.108 78.335 32.204 76.991 32.276C75.647 32.324 74.387 32.336 73.211 32.312C71.531 32.264 70.691 31.436 70.691 29.828V19.784C70.691 18.944 70.919 18.32 71.375 17.912C71.831 17.48 72.431 17.264 73.175 17.264L81.023 17.228L81.059 13.664H72.491C72.107 13.664 71.795 13.556 71.555 13.34C71.339 13.1 71.231 12.788 71.231 12.404V9.596C71.231 9.212 71.339 8.912 71.555 8.696C71.795 8.456 72.107 8.336 72.491 8.336L84.911 8.408C85.655 8.408 86.255 8.624 86.711 9.056C87.191 9.464 87.419 10.088 87.395 10.928L87.215 20.072C87.191 20.864 86.975 21.476 86.567 21.908C86.159 22.34 85.535 22.568 84.695 22.592L76.991 22.7V26.588Z" fill="#FFDC01"/>
<path d="M8.76118 24.5V25.5001L8.77338 25.4999L8.76118 24.5ZM7.06918 24.032L6.33438 24.7103L6.34795 24.725L6.36208 24.7391L7.06918 24.032ZM6.60118 22.34L7.6008 22.3106L7.60043 22.3013L6.60118 22.34ZM6.06119 8.408L7.06044 8.36927L7.05989 8.35536L7.05898 8.34148L6.06119 8.408ZM12.0012 11.288H11.0012V12.2952L12.0083 12.288L12.0012 11.288ZM17.0412 11.252L17.0483 12.252L18.0412 12.2449V11.252H17.0412ZM17.0412 8.336L16.0417 8.30268L16.0412 8.31934V8.336H17.0412ZM22.9452 8.336L21.9457 8.30268L21.9455 8.31275L22.9452 8.336ZM22.9092 9.884L21.9095 9.86075L21.8857 10.884H22.9092V9.884ZM27.0132 9.884V10.884H28.0132V9.884H27.0132ZM33.4932 7.94L32.4937 7.90668L32.4934 7.9184L33.4932 7.94ZM33.1332 24.608L34.131 24.6745L34.1325 24.6521L34.1329 24.6296L33.1332 24.608ZM27.2292 24.608H28.2293L28.2291 24.5957L27.2292 24.608ZM27.1932 21.692L28.1931 21.6797L28.1809 20.692H27.1932V21.692ZM22.6932 21.692V20.692H21.6932V21.692H22.6932ZM22.2252 23.888L21.5181 23.1809L22.2252 23.888ZM20.5692 24.356L20.5814 25.3559L20.59 25.3558L20.5986 25.3556L20.5692 24.356ZM16.5012 38.792L17.1613 38.0408L16.5012 38.792ZM14.6652 30.548L15.569 30.9761L15.5732 30.9671L14.6652 30.548ZM19.3452 26.444L19.0051 25.5036L18.9985 25.506L19.3452 26.444ZM31.4412 30.548L30.5245 30.9476L30.5307 30.9619L30.5374 30.9761L31.4412 30.548ZM31.4412 36.38L30.5374 35.9519L30.5328 35.9617L30.5284 35.9716L31.4412 36.38ZM29.6412 38.792L28.9811 38.0408L29.6412 38.792ZM26.7972 40.448L26.4505 39.51L26.7972 40.448ZM19.3452 40.448L18.9985 41.386L19.0051 41.3884L19.3452 40.448ZM20.7492 35.588L20.0709 36.3228L20.0778 36.3292L20.0848 36.3354L20.7492 35.588ZM26.1132 35.588L25.4349 34.8532L26.1132 35.588ZM26.1132 31.34L25.4349 32.0748L26.1132 31.34ZM20.7492 31.34L20.0848 30.5926L20.0778 30.5988L20.0709 30.6052L20.7492 31.34ZM12.0732 19.532L11.0732 19.5425L11.0837 20.5391L12.0803 20.532L12.0732 19.532ZM17.1132 19.496L17.1203 20.496L18.1236 20.4888L18.1131 19.4856L17.1132 19.496ZM17.0772 16.04L18.0771 16.0296L18.0667 15.0258L17.0629 15.0401L17.0772 16.04ZM12.0372 16.112L12.0229 15.1121L11.0268 15.1263L11.0372 16.1225L12.0372 16.112ZM22.8012 16.724L21.8014 16.7048L21.7818 17.724H22.8012V16.724ZM27.1212 16.724V17.724H28.1406L28.121 16.7048L27.1212 16.724ZM27.0852 14.852L28.085 14.8328L28.0661 13.852H27.0852V14.852ZM22.8372 14.852V13.852H21.8562L21.8374 14.8328L22.8372 14.852ZM8.76118 23.5C8.00729 23.5 7.79428 23.3429 7.77629 23.3249L6.36208 24.7391C6.96809 25.3451 7.88309 25.5 8.76118 25.5V23.5ZM7.80399 23.3537C7.77507 23.3224 7.62334 23.0786 7.60075 22.3106L5.60162 22.3694C5.62703 23.2334 5.78731 24.1176 6.33438 24.7103L7.80399 23.3537ZM7.60043 22.3013L7.06044 8.36927L5.06194 8.44673L5.60194 22.3787L7.60043 22.3013ZM7.05898 8.34148C7.05579 8.29378 7.05659 8.25905 7.05849 8.23557C7.06038 8.21217 7.06317 8.20235 7.06296 8.20314C7.06262 8.20435 7.0592 8.21601 7.04922 8.23403C7.039 8.25251 7.02435 8.27319 7.00517 8.29302C6.98607 8.31279 6.96721 8.32682 6.95229 8.33584C6.93784 8.34457 6.93048 8.34656 6.93454 8.34522C6.9389 8.34378 6.95406 8.33931 6.98294 8.33528C7.01187 8.33124 7.05205 8.328 7.10519 8.328V6.328C6.59344 6.328 6.00467 6.45042 5.5672 6.90298C5.12318 7.3623 5.02907 7.95948 5.0634 8.47452L7.05898 8.34148ZM7.10519 8.328H10.9572V6.328H7.10519V8.328ZM10.9572 8.328C11.0479 8.328 11.0856 8.34006 11.088 8.34087C11.0882 8.34096 11.0797 8.33802 11.066 8.32951C11.052 8.3208 11.0362 8.30859 11.0212 8.29302C11.0062 8.27751 10.9958 8.26272 10.9893 8.25159C10.9831 8.24084 10.9823 8.23654 10.9841 8.2422C10.9884 8.25558 11.0012 8.30548 11.0012 8.408H13.0012C13.0012 7.90218 12.8793 7.33764 12.4592 6.90298C12.0329 6.46201 11.4681 6.328 10.9572 6.328V8.328ZM11.0012 8.408V11.288H13.0012V8.408H11.0012ZM12.0083 12.288L17.0483 12.252L17.034 10.252L11.994 10.288L12.0083 12.288ZM18.0412 11.252V8.336H16.0412V11.252H18.0412ZM18.0406 8.36931C18.0441 8.26414 18.0586 8.20908 18.0654 8.18916C18.071 8.17291 18.0671 8.19209 18.0392 8.22102C18.0262 8.23447 18.012 8.24571 17.9985 8.2542C17.9853 8.26254 17.9763 8.26593 17.9748 8.26649C17.973 8.26711 18.0042 8.256 18.0852 8.256V6.256C17.5742 6.256 17.0213 6.39636 16.6012 6.83098C16.1925 7.25379 16.0584 7.80254 16.0417 8.30268L18.0406 8.36931ZM18.0852 8.256H21.9012V6.256H18.0852V8.256ZM21.9012 8.256C21.95 8.256 21.9862 8.25907 22.0117 8.26273C22.0371 8.26637 22.0496 8.27028 22.052 8.27111C22.0541 8.27183 22.0462 8.26936 22.0321 8.26073C22.0176 8.25183 22.0003 8.23869 21.9832 8.22102C21.9661 8.20335 21.9536 8.18565 21.9452 8.17088C21.9371 8.15655 21.9349 8.14861 21.9356 8.15085C21.9364 8.15343 21.9399 8.16615 21.9427 8.19174C21.9455 8.21741 21.9474 8.25385 21.9457 8.30268L23.9446 8.36932C23.9617 7.85851 23.8531 7.2778 23.4212 6.83098C22.9891 6.38404 22.4124 6.256 21.9012 6.256V8.256ZM21.9455 8.31275L21.9095 9.86075L23.9089 9.90725L23.9449 8.35925L21.9455 8.31275ZM22.9092 10.884H27.0132V8.884H22.9092V10.884ZM28.0132 9.884V7.94H26.0132V9.884H28.0132ZM28.0132 7.94C28.0132 7.83748 28.0259 7.78758 28.0302 7.77419C28.0321 7.76855 28.0313 7.77283 28.025 7.78359C28.0186 7.79472 28.0082 7.80952 27.9932 7.82502C27.9781 7.84058 27.9624 7.8528 27.9484 7.86151C27.9347 7.87003 27.9262 7.87296 27.9264 7.87287C27.9288 7.87206 27.9665 7.86 28.0572 7.86V5.86C27.5463 5.86 26.9815 5.99401 26.5552 6.43497C26.135 6.86964 26.0132 7.43419 26.0132 7.94H28.0132ZM28.0572 7.86H32.4492V5.86H28.0572V7.86ZM32.4492 7.86C32.498 7.86 32.5342 7.86308 32.5597 7.86673C32.5851 7.87038 32.5975 7.87428 32.6 7.87511C32.6021 7.87583 32.5942 7.87337 32.5801 7.86472C32.5656 7.85583 32.5483 7.84269 32.5312 7.82502C32.5141 7.80735 32.5016 7.78964 32.4932 7.77489C32.4851 7.76054 32.4829 7.75261 32.4836 7.75484C32.4844 7.75743 32.4879 7.77015 32.4907 7.79575C32.4935 7.82142 32.4954 7.85786 32.4937 7.90668L34.4926 7.97331C34.5097 7.4625 34.4011 6.88181 33.9692 6.43497C33.5371 5.98804 32.9604 5.86 32.4492 5.86V7.86ZM32.4934 7.9184L32.1334 24.5864L34.1329 24.6296L34.493 7.96159L32.4934 7.9184ZM32.1354 24.5415C32.1284 24.6467 32.112 24.7038 32.1032 24.7271C32.0957 24.7471 32.0971 24.7339 32.1201 24.7109C32.1306 24.7003 32.1421 24.6915 32.1528 24.6849C32.1633 24.6784 32.1697 24.6762 32.1693 24.6763C32.1673 24.677 32.1339 24.688 32.0532 24.688V26.688C32.5664 26.688 33.1126 26.5468 33.5343 26.1251C33.9451 25.7143 34.0975 25.1763 34.131 24.6745L32.1354 24.5415ZM32.0532 24.688H28.3092V26.688H32.0532V24.688ZM28.3092 24.688C28.2095 24.688 28.1631 24.6752 28.1529 24.6718C28.1488 24.6705 28.1542 24.6718 28.1656 24.6786C28.1772 24.6856 28.1917 24.6963 28.2063 24.7109C28.2209 24.7255 28.2315 24.7399 28.2386 24.7516C28.2454 24.763 28.2467 24.7683 28.2454 24.7643C28.242 24.7541 28.2292 24.7076 28.2292 24.608H26.2292C26.2292 25.1221 26.3584 25.6914 26.7921 26.1251C27.2258 26.5588 27.795 26.688 28.3092 26.688V24.688ZM28.2291 24.5957L28.1931 21.6797L26.1933 21.7043L26.2293 24.6203L28.2291 24.5957ZM27.1932 20.692H22.6932V22.692H27.1932V20.692ZM21.6932 21.692V22.196H23.6932V21.692H21.6932ZM21.6932 22.196C21.6932 22.9499 21.5361 23.1629 21.5181 23.1809L22.9323 24.5951C23.5383 23.9891 23.6932 23.0741 23.6932 22.196H21.6932ZM21.5181 23.1809C21.5343 23.1647 21.4983 23.2092 21.3232 23.2587C21.1517 23.3072 20.8972 23.3459 20.5398 23.3564L20.5986 25.3556C21.4494 25.3305 22.3527 25.1747 22.9323 24.5951L21.5181 23.1809ZM20.557 23.3561L8.74899 23.5001L8.77338 25.4999L20.5814 25.3559L20.557 23.3561ZM17.1613 38.0408C16.467 37.4307 15.94 36.7352 15.5689 35.9519L13.7614 36.8081C14.2544 37.8488 14.9514 38.7613 15.8411 39.5432L17.1613 38.0408ZM15.5689 35.9519C15.2018 35.1768 15.0172 34.3514 15.0172 33.464H13.0172C13.0172 34.6406 13.2646 35.7592 13.7614 36.8081L15.5689 35.9519ZM15.0172 33.464C15.0172 32.5766 15.2018 31.7512 15.5689 30.9761L13.7614 30.1199C13.2646 31.1688 13.0172 32.2874 13.0172 33.464H15.0172ZM15.5732 30.9671C15.9453 30.1608 16.4717 29.4571 17.1613 28.8512L15.8411 27.3488C14.9466 28.1349 14.2491 29.0632 13.7572 30.1289L15.5732 30.9671ZM17.1613 28.8512C17.8511 28.245 18.6896 27.7524 19.6918 27.382L18.9985 25.506C17.7928 25.9516 16.7353 26.563 15.8411 27.3488L17.1613 28.8512ZM19.6853 27.3844C20.6901 27.0209 21.8211 26.832 23.0892 26.832V24.832C21.6213 24.832 20.2563 25.0511 19.0051 25.5036L19.6853 27.3844ZM23.0892 26.832C24.3577 26.832 25.4739 27.0211 26.4505 27.382L27.1438 25.506C25.9124 25.0509 24.5566 24.832 23.0892 24.832V26.832ZM26.4505 27.382C27.4528 27.7524 28.2913 28.245 28.9811 28.8512L30.3013 27.3488C29.4071 26.563 28.3496 25.9516 27.1438 25.506L26.4505 27.382ZM28.9811 28.8512C29.6665 29.4535 30.1771 30.1506 30.5245 30.9476L32.3579 30.1484C31.8893 29.0734 31.1999 28.1385 30.3013 27.3488L28.9811 28.8512ZM30.5374 30.9761C30.9046 31.7512 31.0892 32.5766 31.0892 33.464H33.0892C33.0892 32.2874 32.8418 31.1688 32.3449 30.1199L30.5374 30.9761ZM31.0892 33.464C31.0892 34.3514 30.9046 35.1768 30.5374 35.9519L32.3449 36.8081C32.8418 35.7592 33.0892 34.6406 33.0892 33.464H31.0892ZM30.5284 35.9716C30.1822 36.7453 29.6713 37.4343 28.9811 38.0408L30.3013 39.5432C31.1951 38.7577 31.8841 37.8387 32.354 36.7884L30.5284 35.9716ZM28.9811 38.0408C28.2913 38.647 27.4528 39.1396 26.4505 39.51L27.1438 41.386C28.3496 40.9404 29.4071 40.329 30.3013 39.5432L28.9811 38.0408ZM26.4505 39.51C25.4739 39.8709 24.3577 40.06 23.0892 40.06V42.06C24.5566 42.06 25.9124 41.8411 27.1438 41.386L26.4505 39.51ZM23.0892 40.06C21.8211 40.06 20.6901 39.8711 19.6853 39.5076L19.0051 41.3884C20.2563 41.841 21.6213 42.06 23.0892 42.06V40.06ZM19.6918 39.51C18.6896 39.1396 17.8511 38.647 17.1613 38.0408L15.8411 39.5432C16.7353 40.329 17.7928 40.9404 18.9985 41.386L19.6918 39.51ZM18.8132 33.464C18.8132 34.5866 19.2444 35.5599 20.0709 36.3228L21.4275 34.8532C21.006 34.4641 20.8132 34.0214 20.8132 33.464H18.8132ZM20.0848 36.3354C20.969 37.1213 22.1341 37.452 23.4492 37.452V35.452C22.4603 35.452 21.8254 35.2067 21.4136 34.8406L20.0848 36.3354ZM23.4492 37.452C24.7616 37.452 25.9253 37.1223 26.7915 36.3228L25.4349 34.8532C25.0531 35.2057 24.4407 35.452 23.4492 35.452V37.452ZM26.7915 36.3228C27.618 35.5599 28.0492 34.5866 28.0492 33.464H26.0492C26.0492 34.0214 25.8564 34.4641 25.4349 34.8532L26.7915 36.3228ZM28.0492 33.464C28.0492 32.3414 27.618 31.3681 26.7915 30.6052L25.4349 32.0748C25.8564 32.4639 26.0492 32.9066 26.0492 33.464H28.0492ZM26.7915 30.6052C25.9253 29.8057 24.7616 29.476 23.4492 29.476V31.476C24.4407 31.476 25.0531 31.7223 25.4349 32.0748L26.7915 30.6052ZM23.4492 29.476C22.1341 29.476 20.969 29.8067 20.0848 30.5926L21.4136 32.0874C21.8254 31.7213 22.4603 31.476 23.4492 31.476V29.476ZM20.0709 30.6052C19.2444 31.3681 18.8132 32.3414 18.8132 33.464H20.8132C20.8132 32.9066 21.006 32.4639 21.4275 32.0748L20.0709 30.6052ZM12.0803 20.532L17.1203 20.496L17.106 18.496L12.066 18.532L12.0803 20.532ZM18.1131 19.4856L18.0771 16.0296L16.0772 16.0504L16.1132 19.5064L18.1131 19.4856ZM17.0629 15.0401L12.0229 15.1121L12.0515 17.1119L17.0915 17.0399L17.0629 15.0401ZM11.0372 16.1225L11.0732 19.5425L13.0731 19.5215L13.0371 16.1015L11.0372 16.1225ZM22.8012 17.724H27.1212V15.724H22.8012V17.724ZM28.121 16.7048L28.085 14.8328L26.0854 14.8712L26.1214 16.7432L28.121 16.7048ZM27.0852 13.852H22.8372V15.852H27.0852V13.852ZM21.8374 14.8328L21.8014 16.7048L23.801 16.7432L23.837 14.8712L21.8374 14.8328ZM64.161 9.02L63.1615 8.98669L63.1614 8.98931L64.161 9.02ZM63.909 17.228L62.9094 17.1973L62.8774 18.2405L63.921 18.2279L63.909 17.228ZM66.897 17.192V16.1919L66.8849 16.1921L66.897 17.192ZM67.797 17.552L67.0537 18.221L67.0889 18.2601L67.128 18.2953L67.797 17.552ZM67.797 22.34L68.5041 23.0471V23.0471L67.797 22.34ZM66.897 22.664V21.664H66.8856L66.8743 21.6643L66.897 22.664ZM63.729 22.736L63.7063 21.7363L62.7584 21.7578L62.7294 22.7054L63.729 22.736ZM63.369 34.508L62.3694 34.4774L62.369 34.4927V34.508H63.369ZM42.561 28.316L42.1896 29.2445L42.2007 29.2489L42.2119 29.2531L42.561 28.316ZM39.429 26.264L38.7219 26.9711L39.429 26.264ZM37.305 23.096L36.3777 23.4705L36.3821 23.4813L36.3868 23.4921L37.305 23.096ZM37.305 14.672L36.3814 14.2886L36.3783 14.2961L36.3753 14.3036L37.305 14.672ZM39.429 11.396L38.7125 10.6984L39.429 11.396ZM42.561 9.308L42.9324 10.2365L42.9417 10.2327L42.561 9.308ZM50.373 9.308L49.9857 10.23L49.9936 10.2333L50.0016 10.2365L50.373 9.308ZM53.505 11.396L52.7885 12.0936L53.505 11.396ZM55.593 14.672L54.6633 15.0404L55.593 14.672ZM55.593 23.096L56.5177 23.4768L56.5202 23.4705L55.593 23.096ZM53.505 26.264L52.7979 25.5569L53.505 26.264ZM50.373 28.316L50.7282 29.2508L50.7363 29.2477L50.7444 29.2445L50.373 28.316ZM44.181 22.34L43.4324 23.003L43.4372 23.0084L43.442 23.0138L44.181 22.34ZM49.833 22.34L50.5719 23.0138L50.5768 23.0084L50.5816 23.003L49.833 22.34ZM49.833 15.428L50.5816 14.765L49.833 15.428ZM44.145 15.428L43.3857 14.7772L44.145 15.428ZM58.761 34.588C58.6613 34.588 58.6148 34.5752 58.6047 34.5718C58.6006 34.5705 58.606 34.5718 58.6173 34.5786C58.629 34.5856 58.6435 34.5963 58.6581 34.6109C58.6727 34.6255 58.6833 34.6399 58.6903 34.6516C58.6971 34.663 58.6985 34.6683 58.6972 34.6643C58.6938 34.6541 58.681 34.6077 58.681 34.508H56.681C56.681 35.0221 56.8102 35.5914 57.2439 36.0251C57.6775 36.4588 58.2468 36.588 58.761 36.588V34.588ZM58.681 34.508V9.02H56.681V34.508H58.681ZM58.681 9.02C58.681 8.91748 58.6937 8.86758 58.698 8.85419C58.6998 8.84854 58.6991 8.85284 58.6928 8.86359C58.6864 8.87472 58.6759 8.88951 58.661 8.90502C58.6459 8.92059 58.6302 8.9328 58.6161 8.94151C58.6024 8.95002 58.594 8.95296 58.5942 8.95287C58.5966 8.95206 58.6343 8.94 58.725 8.94V6.94C58.2141 6.94 57.6492 7.07401 57.223 7.51498C56.8028 7.94964 56.681 8.51418 56.681 9.02H58.681ZM58.725 8.94H63.117V6.94H58.725V8.94ZM63.117 8.94C63.1657 8.94 63.202 8.94307 63.2274 8.94673C63.2528 8.95037 63.2653 8.95428 63.2678 8.95511C63.2699 8.95583 63.262 8.95336 63.2479 8.94473C63.2334 8.93584 63.2161 8.92269 63.199 8.90502C63.1819 8.88735 63.1694 8.86964 63.161 8.85489C63.1529 8.84055 63.1507 8.83261 63.1514 8.83485C63.1522 8.83743 63.1557 8.85014 63.1585 8.87575C63.1613 8.90142 63.1631 8.93786 63.1615 8.98669L65.1604 9.05331C65.1774 8.5425 65.0689 7.96181 64.637 7.51498C64.2049 7.06804 63.6281 6.94 63.117 6.94V8.94ZM63.1614 8.98931L62.9094 17.1973L64.9085 17.2587L65.1605 9.05069L63.1614 8.98931ZM63.921 18.2279L66.909 18.1919L66.8849 16.1921L63.8969 16.2281L63.921 18.2279ZM66.897 18.192C66.9852 18.192 67.0267 18.2057 67.0386 18.2105C67.0465 18.2136 67.0482 18.2149 67.0537 18.221L68.5403 16.883C68.0987 16.3924 67.5059 16.192 66.897 16.192V18.192ZM67.128 18.2953C67.1341 18.3008 67.1353 18.3025 67.1385 18.3104C67.1432 18.3223 67.157 18.3637 67.157 18.452H69.157C69.157 17.8431 68.9566 17.2503 68.4659 16.8087L67.128 18.2953ZM67.157 18.452V21.404H69.157V18.452H67.157ZM67.157 21.404C67.157 21.5608 67.1171 21.6057 67.0899 21.6329L68.5041 23.0471C68.9569 22.5943 69.157 22.0152 69.157 21.404H67.157ZM67.0899 21.6329C67.0887 21.634 67.0883 21.6343 67.0874 21.6349C67.0865 21.6355 67.0818 21.6383 67.0713 21.6421C67.0495 21.6499 66.9964 21.664 66.897 21.664V23.664C67.4743 23.664 68.0552 23.496 68.5041 23.0471L67.0899 21.6329ZM66.8743 21.6643L63.7063 21.7363L63.7517 23.7357L66.9197 23.6637L66.8743 21.6643ZM62.7294 22.7054L62.3694 34.4774L64.3685 34.5386L64.7285 22.7666L62.7294 22.7054ZM62.369 34.508C62.369 34.6077 62.3562 34.6541 62.3528 34.6643C62.3514 34.6683 62.3528 34.663 62.3596 34.6516C62.3666 34.6399 62.3773 34.6255 62.3919 34.6109C62.4064 34.5963 62.4209 34.5856 62.4326 34.5786C62.4439 34.5718 62.4493 34.5705 62.4452 34.5718C62.4351 34.5752 62.3886 34.588 62.289 34.588V36.588C62.8031 36.588 63.3724 36.4588 63.8061 36.0251C64.2398 35.5914 64.369 35.0221 64.369 34.508H62.369ZM62.289 34.588H58.761V36.588H62.289V34.588ZM42.9324 27.3875C41.8543 26.9563 40.9255 26.3463 40.1361 25.5569L38.7219 26.9711C39.7084 27.9577 40.8676 28.7157 42.1896 29.2445L42.9324 27.3875ZM40.1361 25.5569C39.3429 24.7637 38.7042 23.815 38.2232 22.6999L36.3868 23.4921C36.9617 24.825 37.7391 25.9883 38.7219 26.9711L40.1361 25.5569ZM38.2322 22.7215C37.7833 21.6099 37.549 20.3358 37.549 18.884H35.549C35.549 20.5522 35.8187 22.0861 36.3777 23.4705L38.2322 22.7215ZM37.549 18.884C37.549 17.4587 37.7825 16.1816 38.2346 15.0404L36.3753 14.3036C35.8195 15.7064 35.549 17.2373 35.549 18.884H37.549ZM38.2286 15.0554C38.712 13.8906 39.3528 12.9077 40.1454 12.0936L38.7125 10.6984C37.7292 11.7083 36.9539 12.9094 36.3814 14.2886L38.2286 15.0554ZM40.1454 12.0936C40.9343 11.2834 41.8602 10.6653 42.9324 10.2365L42.1896 8.37952C40.8617 8.91067 39.6996 9.68456 38.7125 10.6984L40.1454 12.0936ZM42.9417 10.2327C44.0388 9.78095 45.2167 9.552 46.485 9.552V7.552C44.9692 7.552 43.5312 7.82705 42.1802 8.38332L42.9417 10.2327ZM46.485 9.552C47.7533 9.552 48.9167 9.78098 49.9857 10.23L50.7602 8.38602C49.4293 7.82702 48.0006 7.552 46.485 7.552V9.552ZM50.0016 10.2365C51.0737 10.6653 51.9996 11.2834 52.7885 12.0936L54.2214 10.6984C53.2343 9.68456 52.0722 8.91067 50.7444 8.37952L50.0016 10.2365ZM52.7885 12.0936C53.5777 12.9041 54.2042 13.8818 54.6633 15.0404L56.5226 14.3036C55.9737 12.9182 55.2083 11.7119 54.2214 10.6984L52.7885 12.0936ZM54.6633 15.0404C55.1155 16.1816 55.349 17.4587 55.349 18.884H57.349C57.349 17.2373 57.0785 15.7064 56.5226 14.3036L54.6633 15.0404ZM55.349 18.884C55.349 20.3358 55.1147 21.6099 54.6657 22.7215L56.5202 23.4705C57.0793 22.0861 57.349 20.5522 57.349 18.884H55.349ZM54.6683 22.7152C54.2118 23.8239 53.5875 24.7672 52.7979 25.5569L54.2121 26.9711C55.1984 25.9848 55.9661 24.8161 56.5177 23.4767L54.6683 22.7152ZM52.7979 25.5569C52.0084 26.3463 51.0796 26.9563 50.0016 27.3875L50.7444 29.2445C52.0663 28.7157 53.2255 27.9577 54.2121 26.9711L52.7979 25.5569ZM50.0177 27.3812C48.9404 27.7906 47.7659 28 46.485 28V30C47.9881 30 49.4055 29.7534 50.7282 29.2508L50.0177 27.3812ZM46.485 28C45.2043 28 44.0152 27.7906 42.9101 27.3789L42.2119 29.2531C43.5547 29.7534 44.9817 30 46.485 30V28ZM43.442 23.0138C44.3846 24.0475 45.6055 24.564 47.025 24.564V22.564C46.1404 22.564 45.4654 22.2645 44.9199 21.6662L43.442 23.0138ZM47.025 24.564C48.4273 24.564 49.6339 24.0426 50.5719 23.0138L49.094 21.6662C48.5441 22.2694 47.8786 22.564 47.025 22.564V24.564ZM50.5816 23.003C51.5318 21.9302 51.949 20.5162 51.949 18.884H49.949C49.949 20.1798 49.6222 21.0698 49.0844 21.677L50.5816 23.003ZM51.949 18.884C51.949 17.2518 51.5318 15.8378 50.5816 14.765L49.0844 16.091C49.6222 16.6982 49.949 17.5882 49.949 18.884H51.949ZM50.5816 14.765C49.6466 13.7094 48.4375 13.168 47.025 13.168V15.168C47.8684 15.168 48.5313 15.4666 49.0844 16.091L50.5816 14.765ZM47.025 13.168C45.561 13.168 44.3132 13.6952 43.3857 14.7772L44.9042 16.0788C45.4168 15.4808 46.0889 15.168 47.025 15.168V13.168ZM43.3857 14.7772C42.4661 15.8501 42.065 17.2595 42.065 18.884H44.065C44.065 17.5806 44.3838 16.6859 44.9042 16.0788L43.3857 14.7772ZM42.065 18.884C42.065 20.5162 42.4822 21.9302 43.4324 23.003L44.9296 21.677C44.3918 21.0698 44.065 20.1798 44.065 18.884H42.065ZM97.655 9.02L96.6556 8.98669L96.6555 8.98895L97.655 9.02ZM96.863 34.508L95.8635 34.4769L95.863 34.4925V34.508H96.863ZM76.991 26.588H75.991V27.5586L76.9612 27.5876L76.991 26.588ZM81.995 26.48L82.0643 27.4777L82.077 27.4766L81.995 26.48ZM87.071 25.832L86.9011 24.8465L86.8972 24.8472L87.071 25.832ZM88.259 26.552L87.2716 26.71L87.2732 26.7199L87.275 26.7298L88.259 26.552ZM88.799 29.54L89.789 29.3986L89.7864 29.3803L89.7831 29.3622L88.799 29.54ZM88.043 30.8L87.7734 29.837L87.7716 29.8375L88.043 30.8ZM80.987 31.988L81.0776 32.9839L81.0865 32.9831L81.0955 32.9821L80.987 31.988ZM76.991 32.276L77.0267 33.2754L77.0356 33.275L77.0445 33.2746L76.991 32.276ZM73.211 32.312L73.1825 33.3116L73.1906 33.3118L73.211 32.312ZM71.375 17.912L72.0418 18.6572L72.0524 18.6477L72.0628 18.638L71.375 17.912ZM73.175 17.264V18.264L73.1796 18.264L73.175 17.264ZM81.023 17.228L81.0276 18.228L82.013 18.2235L82.023 17.2381L81.023 17.228ZM81.059 13.664L82.059 13.6741L82.0692 12.664H81.059V13.664ZM71.555 13.34L70.8117 14.009L70.8469 14.0481L70.8861 14.0833L71.555 13.34ZM71.555 8.696L72.2621 9.40311L71.555 8.696ZM72.491 8.336L72.4968 7.336H72.491V8.336ZM84.911 8.408L84.9052 9.408H84.911V8.408ZM86.711 9.056L86.0233 9.78195L86.0428 9.80048L86.0634 9.81794L86.711 9.056ZM87.395 10.928L86.3954 10.8994L86.3952 10.9083L87.395 10.928ZM87.215 20.072L88.2146 20.1023L88.2148 20.0917L87.215 20.072ZM86.567 21.908L87.2941 22.5946L86.567 21.908ZM84.695 22.592L84.709 23.5919L84.7163 23.5918L84.7236 23.5916L84.695 22.592ZM76.991 22.7L76.977 21.7001L75.991 21.7139V22.7H76.991ZM92.255 34.588C92.1554 34.588 92.1089 34.5752 92.0988 34.5718C92.0947 34.5705 92.1001 34.5718 92.1114 34.5786C92.1231 34.5856 92.1376 34.5963 92.1521 34.6109C92.1667 34.6255 92.1774 34.6399 92.1844 34.6516C92.1912 34.663 92.1926 34.6683 92.1912 34.6643C92.1878 34.6541 92.175 34.6077 92.175 34.508H90.175C90.175 35.0221 90.3042 35.5914 90.7379 36.0251C91.1716 36.4588 91.7409 36.588 92.255 36.588V34.588ZM92.175 34.508V9.02H90.175V34.508H92.175ZM92.175 9.02C92.175 8.91748 92.1878 8.86758 92.1921 8.85419C92.1939 8.84855 92.1931 8.85284 92.1869 8.86359C92.1804 8.87473 92.17 8.88951 92.155 8.90502C92.14 8.92059 92.1243 8.9328 92.1102 8.94151C92.0965 8.95002 92.088 8.95296 92.0883 8.95287C92.0906 8.95206 92.1284 8.94 92.219 8.94V6.94C91.7081 6.94 91.1433 7.07401 90.717 7.51498C90.2969 7.94964 90.175 8.51418 90.175 9.02H92.175ZM92.219 8.94H96.611V6.94H92.219V8.94ZM96.611 8.94C96.6598 8.94 96.696 8.94307 96.7215 8.94673C96.7469 8.95037 96.7594 8.95428 96.7619 8.95511C96.764 8.95583 96.7561 8.95336 96.7419 8.94473C96.7274 8.93584 96.7101 8.92269 96.693 8.90502C96.676 8.88735 96.6634 8.86964 96.6551 8.85489C96.6469 8.84055 96.6448 8.83261 96.6455 8.83485C96.6462 8.83743 96.6497 8.85014 96.6525 8.87575C96.6553 8.90142 96.6572 8.93786 96.6556 8.98669L98.6545 9.05331C98.6715 8.5425 98.563 7.96181 98.131 7.51498C97.699 7.06804 97.1222 6.94 96.611 6.94V8.94ZM96.6555 8.98895L95.8635 34.4769L97.8625 34.5391L98.6546 9.05106L96.6555 8.98895ZM95.863 34.508C95.863 34.6077 95.8502 34.6541 95.8468 34.6643C95.8455 34.6683 95.8469 34.663 95.8537 34.6516C95.8607 34.6399 95.8714 34.6255 95.8859 34.6109C95.9005 34.5963 95.915 34.5856 95.9267 34.5786C95.938 34.5718 95.9434 34.5705 95.9393 34.5718C95.9292 34.5752 95.8827 34.588 95.783 34.588V36.588C96.2972 36.588 96.8665 36.4588 97.3001 36.0251C97.7338 35.5914 97.863 35.0221 97.863 34.508H95.863ZM95.783 34.588H92.255V36.588H95.783V34.588ZM76.9612 27.5876C78.6046 27.6366 80.3058 27.5997 82.0643 27.4776L81.9258 25.4824C80.2283 25.6003 78.5934 25.6354 77.0209 25.5884L76.9612 27.5876ZM82.077 27.4766C83.8579 27.3303 85.5806 27.1105 87.2448 26.8168L86.8972 24.8472C85.2974 25.1295 83.6362 25.3417 81.9131 25.4834L82.077 27.4766ZM87.2409 26.8175C87.3476 26.7991 87.4062 26.8012 87.4276 26.8035C87.4459 26.8055 87.4184 26.8055 87.3717 26.7772C87.349 26.7635 87.3271 26.7461 87.3077 26.7261C87.2884 26.7064 87.2756 26.688 87.2679 26.6749C87.2533 26.6499 87.2625 26.6532 87.2716 26.71L89.2465 26.394C89.1675 25.9006 88.9306 25.3834 88.4083 25.0668C87.9196 24.7706 87.3667 24.7663 86.9011 24.8465L87.2409 26.8175ZM87.275 26.7298L87.815 29.7178L89.7831 29.3622L89.2431 26.3742L87.275 26.7298ZM87.8091 29.6814C87.837 29.8769 87.794 29.8954 87.8245 29.8445C87.8391 29.8203 87.8557 29.8065 87.8598 29.8037C87.8607 29.8031 87.8379 29.819 87.7734 29.837L88.3127 31.763C88.789 31.6296 89.249 31.3577 89.5395 30.8735C89.8221 30.4026 89.8571 29.8751 89.789 29.3986L87.8091 29.6814ZM87.7716 29.8375C86.8826 30.0883 85.8428 30.3087 84.6481 30.4961L84.958 32.4719C86.2112 32.2753 87.3315 32.0397 88.3145 31.7625L87.7716 29.8375ZM84.6481 30.4961C83.4406 30.6855 82.1841 30.8515 80.8786 30.9939L81.0955 32.9821C82.4299 32.8365 83.7175 32.6665 84.958 32.4719L84.6481 30.4961ZM80.8965 30.9921C79.589 31.111 78.2694 31.2061 76.9375 31.2774L77.0445 33.2746C78.4007 33.2019 79.7451 33.105 81.0776 32.9839L80.8965 30.9921ZM76.9553 31.2766C75.6274 31.3241 74.3863 31.3358 73.2314 31.3122L73.1906 33.3118C74.3877 33.3362 75.6666 33.3239 77.0267 33.2754L76.9553 31.2766ZM73.2396 31.3124C72.5452 31.2926 72.1989 31.1162 72.023 30.9428C71.8547 30.7769 71.691 30.4642 71.691 29.828H69.691C69.691 30.7998 69.9474 31.7051 70.619 32.3672C71.2831 33.0218 72.1969 33.2834 73.1825 33.3116L73.2396 31.3124ZM71.691 29.828V19.784H69.691V29.828H71.691ZM71.691 19.784C71.691 19.1181 71.8681 18.8126 72.0418 18.6572L70.7082 17.1668C69.9699 17.8274 69.691 18.7699 69.691 19.784H71.691ZM72.0628 18.638C72.2995 18.4137 72.6366 18.264 73.175 18.264V16.264C72.2255 16.264 71.3626 16.5463 70.6873 17.186L72.0628 18.638ZM73.1796 18.264L81.0276 18.228L81.0184 16.228L73.1704 16.264L73.1796 18.264ZM82.023 17.2381L82.059 13.6741L80.0591 13.6539L80.0231 17.2179L82.023 17.2381ZM81.059 12.664H72.491V14.664H81.059V12.664ZM72.491 12.664C72.3047 12.664 72.2467 12.6171 72.224 12.5967L70.8861 14.0833C71.3434 14.4949 71.9094 14.664 72.491 14.664V12.664ZM72.2983 12.671C72.2779 12.6483 72.231 12.5904 72.231 12.404H70.231C70.231 12.9856 70.4002 13.5517 70.8117 14.009L72.2983 12.671ZM72.231 12.404V9.596H70.231V12.404H72.231ZM72.231 9.596C72.231 9.49657 72.2451 9.44343 72.2529 9.42172C72.2567 9.41112 72.2596 9.40646 72.2602 9.40552C72.2607 9.40469 72.261 9.40423 72.2621 9.40311L70.8479 7.98889C70.399 8.43778 70.231 9.01867 70.231 9.596H72.231ZM72.2621 9.40311C72.2894 9.37589 72.3343 9.336 72.491 9.336V7.336C71.8798 7.336 71.3007 7.53611 70.8479 7.98889L72.2621 9.40311ZM72.4852 9.33598L84.9052 9.40798L84.9168 7.40801L72.4968 7.33601L72.4852 9.33598ZM84.911 9.408C85.4495 9.408 85.7866 9.55772 86.0233 9.78195L87.3988 8.33005C86.7235 7.69028 85.8606 7.408 84.911 7.408V9.408ZM86.0634 9.81794C86.2406 9.96854 86.4139 10.2542 86.3954 10.8994L88.3946 10.9566C88.4242 9.92181 88.1415 8.95946 87.3587 8.29406L86.0634 9.81794ZM86.3952 10.9083L86.2152 20.0523L88.2148 20.0917L88.3948 10.9477L86.3952 10.9083ZM86.2155 20.0417C86.1964 20.6718 86.0305 21.0196 85.84 21.2214L87.2941 22.5946C87.9195 21.9324 88.1857 21.0562 88.2146 20.1023L86.2155 20.0417ZM85.84 21.2214C85.6783 21.3926 85.3524 21.5728 84.6665 21.5924L84.7236 23.5916C85.7177 23.5632 86.6397 23.2874 87.2941 22.5946L85.84 21.2214ZM84.681 21.5921L76.977 21.7001L77.0051 23.6999L84.709 23.5919L84.681 21.5921ZM75.991 22.7V26.588H77.991V22.7H75.991Z" fill="black" fill-opacity="0.66"/>
</g>
<defs>
<filter id="filter0_d_715_6547" x="-4" y="0" width="112" height="53" filterUnits="userSpaceOnUse" color-interpolation-filters="sRGB">
<feFlood flood-opacity="0" result="BackgroundImageFix"/>
<feColorMatrix in="SourceAlpha" type="matrix" values="0 0 0 0 0 0 0 0 0 0 0 0 0 0 0 0 0 0 127 0" result="hardAlpha"/>
<feOffset dy="4"/>
<feGaussianBlur stdDeviation="2"/>
<feComposite in2="hardAlpha" operator="out"/>
<feColorMatrix type="matrix" values="0 0 0 0 0 0 0 0 0 0 0 0 0 0 0 0 0 0 0.25 0"/>
<feBlend mode="normal" in2="BackgroundImageFix" result="effect1_dropShadow_715_6547"/>
<feBlend mode="normal" in="SourceGraphic" in2="effect1_dropShadow_715_6547" result="shape"/>
</filter>
</defs>
</svg>
