<svg width="40" height="40" viewBox="0 0 121 121" fill="none" xmlns="http://www.w3.org/2000/svg">
<path d="M60.5 22.6875C35.2917 22.6875 13.7637 38.3671 5.04166 60.5C13.7637 82.6329 35.2917 98.3125 60.5 98.3125C85.7083 98.3125 107.236 82.6329 115.958 60.5C107.236 38.3671 85.7083 22.6875 60.5 22.6875ZM60.5 85.7083C46.585 85.7083 35.2917 74.415 35.2917 60.5C35.2917 46.585 46.585 35.2917 60.5 35.2917C74.415 35.2917 85.7083 46.585 85.7083 60.5C85.7083 74.415 74.415 85.7083 60.5 85.7083ZM60.5 45.375C52.1308 45.375 45.375 52.1308 45.375 60.5C45.375 68.8692 52.1308 75.625 60.5 75.625C68.8692 75.625 75.625 68.8692 75.625 60.5C75.625 52.1308 68.8692 45.375 60.5 45.375Z" fill="black"/>
<line x1="21.5977" y1="94.336" x2="91.5977" y2="29.336" stroke="black" stroke-width="10"/>
</svg>
