<svg width="40" height="40" viewBox="0 0 40 40" fill="none" xmlns="http://www.w3.org/2000/svg">
<path d="M20 7.5C11.6666 7.5 4.54996 12.6833 1.66663 20C4.54996 27.3167 11.6666 32.5 20 32.5C28.3333 32.5 35.45 27.3167 38.3333 20C35.45 12.6833 28.3333 7.5 20 7.5ZM20 28.3333C15.4 28.3333 11.6666 24.6 11.6666 20C11.6666 15.4 15.4 11.6667 20 11.6667C24.6 11.6667 28.3333 15.4 28.3333 20C28.3333 24.6 24.6 28.3333 20 28.3333ZM20 15C17.2333 15 15 17.2333 15 20C15 22.7667 17.2333 25 20 25C22.7666 25 25 22.7667 25 20C25 17.2333 22.7666 15 20 15Z" fill="black"/>
</svg>
