<svg width="155" height="97" viewBox="0 0 155 97" fill="none" xmlns="http://www.w3.org/2000/svg">
<g filter="url(#filter0_d_419_6133)">
<path d="M48.2329 76.1586C47.3219 76.5198 46.6858 76.2448 46.3246 75.3338L39.8232 58.9356L36.1517 60.444C36.2647 61.1723 36.3202 61.8883 36.318 62.5919C36.3247 64.3814 36.0042 66.0547 35.3564 67.6117C34.7087 69.1687 33.746 70.5519 32.4685 71.7612C31.2092 72.9281 29.6838 73.8667 27.8921 74.5771C26.1005 75.2874 24.3311 75.6551 22.584 75.6801C20.8249 75.6748 19.1608 75.333 17.5917 74.6549C16.053 73.9648 14.6578 72.9718 13.4061 71.6759C12.1727 70.3376 11.1647 68.6815 10.3821 66.7076C9.61156 64.7642 9.21091 62.8673 9.18015 61.017C9.17975 59.1548 9.4974 57.4299 10.1331 55.8425C10.7992 54.2431 11.771 52.8388 13.0486 51.6294C14.3141 50.3897 15.8427 49.4147 17.6343 48.7044C19.426 47.994 21.1922 47.6627 22.933 47.7105C24.6922 47.7159 26.3471 48.0788 27.8978 48.7993C29.4485 49.5198 30.8466 50.5644 32.0921 51.9331C32.5214 52.3954 32.9203 52.8698 33.2888 53.3562L37.042 51.9209L33.5385 43.084C33.1773 42.173 33.437 41.543 34.3177 41.1938L39.8748 38.9905C40.7858 38.6293 41.4068 38.9103 41.7376 39.8333L53.5216 72.4804C53.8828 73.3914 53.6079 74.0275 52.6969 74.3887L48.2329 76.1586ZM21.6814 67.288C23.0018 67.9593 24.3908 68.006 25.8484 67.4281C27.306 66.8502 28.2705 65.8704 28.7418 64.4888C29.201 63.0768 29.0634 61.4446 28.329 59.5922C27.5946 57.7398 26.5764 56.4567 25.2743 55.7431C23.9723 55.0294 22.5925 54.9615 21.1349 55.5394C19.5861 56.1534 18.5973 57.1604 18.1685 58.5603C17.7396 59.9603 17.8923 61.5865 18.6268 63.4389C19.3612 65.2913 20.3794 66.5743 21.6814 67.288ZM88.3121 60.2683C87.4011 60.6295 86.765 60.3546 86.4038 59.4435L79.3606 41.6788L72.1541 44.6414C71.6683 44.834 71.2193 44.8539 70.8073 44.701C70.4136 44.5057 70.1204 44.1651 69.9278 43.6792L68.3385 39.6708C68.1459 39.1849 68.1321 38.7511 68.297 38.3695C68.4803 37.9454 68.8149 37.6371 69.3007 37.4444L76.5613 34.6185L73.6176 27.1938C73.2564 26.2827 73.5162 25.6527 74.3968 25.3035L79.954 23.1002C80.865 22.7391 81.4859 23.02 81.8167 23.943L93.6008 56.5901C93.962 57.5011 93.6871 58.1372 92.776 58.4984L88.3121 60.2683ZM54.7616 63.9241C54.1261 63.4732 54.0251 62.7753 54.4586 61.8304C55.4718 59.777 56.2424 57.7321 56.7703 55.6955C57.2982 53.6589 57.5713 51.6003 57.5898 49.5197C57.6266 47.3967 57.4027 45.2365 56.918 43.0391C56.4213 40.8113 55.655 38.4796 54.619 36.044C54.3117 35.3575 54.2741 34.7751 54.5061 34.2966C54.738 33.8181 55.1121 33.4765 55.6284 33.2718L60.5023 31.3394C61.1096 31.0986 61.6434 31.1154 62.1036 31.3898C62.5517 31.6338 62.881 32.0655 63.0914 32.6849C63.7772 34.5917 64.3265 36.4648 64.7395 38.304C65.1828 40.1313 65.4806 41.9459 65.6328 43.748C67.6478 45.3738 69.6972 46.6873 71.7809 47.6885C73.8829 48.6472 76.1098 49.4335 78.4616 50.0473C79.0071 50.1824 79.3521 50.4322 79.4966 50.7966C79.6411 51.161 79.6552 51.5068 79.5389 51.834L76.9399 56.7123C76.8174 57.1123 76.5284 57.4026 76.0729 57.5832C75.6477 57.7517 75.1715 57.7472 74.6443 57.5697C71.4507 56.5166 68.3257 54.839 65.2694 52.5367C64.887 54.5858 64.3076 56.6253 63.531 58.6551C62.7544 60.6849 61.7412 62.7382 60.4914 64.815C60.1866 65.2873 59.7976 65.5469 59.3243 65.594C58.8814 65.629 58.4722 65.5277 58.0968 65.29L54.7616 63.9241ZM96.4655 49.3399C96.297 48.9148 96.286 48.5326 96.4326 48.1933C96.5792 47.8541 96.8651 47.6002 97.2903 47.4316C98.4746 46.962 99.6285 46.5045 100.752 46.0591C101.894 45.5712 103.021 45.0893 104.132 44.6135L102.209 39.8943C101.796 39.9173 101.383 39.9403 100.971 39.9633C99.3693 40.0009 97.8505 39.7597 96.4144 39.2397C94.9966 38.6773 93.7132 37.8333 92.5641 36.7076C91.4029 35.5515 90.4732 34.0928 89.7749 32.3315C89.0766 30.5702 88.739 28.8767 88.7621 27.2511C88.8036 25.5831 89.1419 24.0433 89.7771 22.6318C90.4426 21.2083 91.3715 19.9615 92.5637 18.8915C93.7743 17.779 95.2146 16.8917 96.8848 16.2295C98.4943 15.5914 100.106 15.2687 101.719 15.2615C103.351 15.2119 104.882 15.4835 106.312 16.0762C107.772 16.6569 109.074 17.5465 110.216 18.745C111.378 19.9011 112.307 21.3598 113.006 23.1211C113.704 24.8824 114.026 26.5819 113.973 28.2196C113.938 29.8148 113.596 31.303 112.949 32.6841C112.29 34.0348 111.349 35.2513 110.127 36.3334C109.98 36.4967 109.813 36.6509 109.625 36.7959L111.285 41.2504C112.434 40.6898 113.554 40.1048 114.648 39.4954C115.772 38.874 116.89 38.2375 118.003 37.5857C118.714 37.1633 119.329 37.341 119.848 38.1191L121.641 41.0454C121.9 41.4344 121.951 41.7833 121.792 42.0922C121.634 42.4011 121.39 42.6733 121.062 42.9089C118.235 44.9082 114.984 46.8121 111.308 48.6208C107.675 50.4477 103.845 52.177 99.8186 53.8087C99.3935 53.9772 99.0113 53.9882 98.672 53.8416C98.3328 53.695 98.0789 53.4091 97.9103 52.9839L96.4655 49.3399ZM126.797 45.0101C125.886 45.3713 125.25 45.0964 124.889 44.1853L112.102 11.9356C111.741 11.0245 112.001 10.3945 112.882 10.0453L118.439 7.84204C119.35 7.48085 119.971 7.76178 120.302 8.68483L124.235 19.6703L128.044 18.1078C128.529 17.9152 128.969 17.9165 129.363 18.1118C129.775 18.2647 130.077 18.5841 130.27 19.07L131.751 22.8051C131.943 23.291 131.948 23.746 131.765 24.17C131.6 24.5517 131.274 24.8388 130.789 25.0315L126.816 26.7118L132.086 41.3319C132.447 42.2429 132.172 42.879 131.261 43.2402L126.797 45.0101ZM97.564 29.2433C98.1058 30.6098 98.9644 31.5345 100.14 32.0173C101.333 32.4577 102.583 32.419 103.889 31.9013C105.164 31.3956 106.071 30.5795 106.608 29.4528C107.163 28.2838 107.17 27.016 106.629 25.6494C106.087 24.2829 105.213 23.3643 104.007 22.8935C102.832 22.4107 101.607 22.4222 100.331 22.9278C98.9647 23.4696 98.0188 24.319 97.4936 25.4761C96.9988 26.621 97.0222 27.8768 97.564 29.2433ZM138.976 28.4797C138.065 28.8408 137.429 28.5659 137.068 27.6549L127.032 6.59632C126.671 5.68531 126.93 5.05522 127.811 4.70607L135.19 1.78042C136.101 1.41923 136.722 1.70016 137.053 2.62322L144.265 24.8015C144.626 25.7125 144.351 26.3486 143.44 26.7098L138.976 28.4797ZM145.369 38.7538C144.215 39.2113 143.065 39.1927 141.92 38.6978C140.818 38.2213 140.038 37.4061 139.58 36.2521C139.123 35.0982 139.132 33.9699 139.609 32.8674C140.103 31.7224 140.928 30.9211 142.082 30.4636C143.236 30.0061 144.37 30.0308 145.485 30.5377C146.618 31.0021 147.413 31.8113 147.87 32.9653C148.328 34.1192 148.303 35.2535 147.796 36.3681C147.332 37.5011 146.523 38.2963 145.369 38.7538Z" fill="black"/>
</g>
<defs>
<filter id="filter0_d_419_6133" x="0.837769" y="0.600929" width="153.769" height="96.1987" filterUnits="userSpaceOnUse" color-interpolation-filters="sRGB">
<feFlood flood-opacity="0" result="BackgroundImageFix"/>
<feColorMatrix in="SourceAlpha" type="matrix" values="0 0 0 0 0 0 0 0 0 0 0 0 0 0 0 0 0 0 127 0" result="hardAlpha"/>
<feOffset dy="4"/>
<feGaussianBlur stdDeviation="2"/>
<feComposite in2="hardAlpha" operator="out"/>
<feColorMatrix type="matrix" values="0 0 0 0 0 0 0 0 0 0 0 0 0 0 0 0 0 0 0.25 0"/>
<feBlend mode="normal" in2="BackgroundImageFix" result="effect1_dropShadow_419_6133"/>
<feBlend mode="normal" in="SourceGraphic" in2="effect1_dropShadow_419_6133" result="shape"/>
</filter>
</defs>
</svg>
