<svg width="67" height="47" viewBox="0 0 67 47" fill="none" xmlns="http://www.w3.org/2000/svg">
<path d="M33.493 25.85C36.0847 25.85 38.5703 24.9834 40.4029 23.441C42.2355 21.8985 43.2651 19.8064 43.2651 17.625C43.2651 15.4436 42.2355 13.3515 40.4029 11.809C38.5703 10.2666 36.0847 9.4 33.493 9.4C30.9013 9.4 28.4158 10.2666 26.5831 11.809C24.7505 13.3515 23.721 15.4436 23.721 17.625C23.721 19.8064 24.7505 21.8985 26.5831 23.441C28.4158 24.9834 30.9013 25.85 33.493 25.85ZM33.493 22.325C32.012 22.325 30.5917 21.8298 29.5445 20.9484C28.4973 20.067 27.909 18.8715 27.909 17.625C27.909 16.3785 28.4973 15.183 29.5445 14.3016C30.5917 13.4202 32.012 12.925 33.493 12.925C34.974 12.925 36.3943 13.4202 37.4415 14.3016C38.4887 15.183 39.0771 16.3785 39.0771 17.625C39.0771 18.8715 38.4887 20.067 37.4415 20.9484C36.3943 21.8298 34.974 22.325 33.493 22.325ZM0 7.05C0 5.18022 0.882474 3.38703 2.45329 2.0649C4.0241 0.742766 6.15458 0 8.37605 0H58.624C60.8454 0 62.9759 0.742766 64.5467 2.0649C66.1175 3.38703 67 5.18022 67 7.05V39.95C67 41.8198 66.1175 43.613 64.5467 44.9351C62.9759 46.2572 60.8454 47 58.624 47H8.37605C6.15458 47 4.0241 46.2572 2.45329 44.9351C0.882474 43.613 0 41.8198 0 39.95V7.05ZM8.37605 3.525C7.26532 3.525 6.20007 3.89638 5.41467 4.55745C4.62926 5.21851 4.18802 6.11511 4.18802 7.05V39.95C4.18802 40.8849 4.62926 41.7815 5.41467 42.4425C6.20007 43.1036 7.26532 43.475 8.37605 43.475H17.4389V34.075C17.4389 32.8285 18.0272 31.633 19.0745 30.7516C20.1217 29.8702 21.542 29.375 23.023 29.375H43.9631C45.4441 29.375 46.8644 29.8702 47.9116 30.7516C48.9588 31.633 49.5471 32.8285 49.5471 34.075V43.475H58.6212C59.7319 43.475 60.7971 43.1036 61.5825 42.4425C62.368 41.7815 62.8092 40.8849 62.8092 39.95V7.05C62.8092 6.11511 62.368 5.21851 61.5825 4.55745C60.7971 3.89638 59.7319 3.525 58.6212 3.525H8.37605ZM45.3591 43.475V34.075C45.3591 33.7634 45.212 33.4645 44.9502 33.2441C44.6884 33.0238 44.3333 32.9 43.9631 32.9H23.023C22.6527 32.9 22.2976 33.0238 22.0358 33.2441C21.774 33.4645 21.627 33.7634 21.627 34.075V43.475H45.3591Z" fill="black"/>
</svg>
