<svg width="52" height="52" viewBox="0 0 52 52" fill="none" xmlns="http://www.w3.org/2000/svg">
<path d="M41.7828 39.4672C42.0879 39.7753 42.2591 40.1914 42.2591 40.6251C42.2591 41.0587 42.0879 41.4748 41.7828 41.7829C41.4722 42.0832 41.057 42.2511 40.625 42.2511C40.1929 42.2511 39.7778 42.0832 39.4672 41.7829L26 28.2954L12.5328 41.7829C12.2222 42.0832 11.807 42.2511 11.375 42.2511C10.9429 42.2511 10.5278 42.0832 10.2172 41.7829C9.91203 41.4748 9.74084 41.0587 9.74084 40.6251C9.74084 40.1914 9.91203 39.7753 10.2172 39.4672L23.7047 26.0001L10.2172 12.5329C9.95805 12.2171 9.82562 11.8163 9.84566 11.4084C9.86569 11.0004 10.0368 10.6145 10.3256 10.3257C10.6144 10.0368 11.0003 9.86577 11.4083 9.84573C11.8162 9.8257 12.2171 9.95812 12.5328 10.2172L26 23.7047L39.4672 10.2172C39.7829 9.95812 40.1837 9.8257 40.5917 9.84573C40.9997 9.86577 41.3856 10.0368 41.6744 10.3257C41.9632 10.6145 42.1343 11.0004 42.1543 11.4084C42.1744 11.8163 42.0419 12.2171 41.7828 12.5329L28.2953 26.0001L41.7828 39.4672Z" fill="black"/>
</svg>
